<svg width="88.77499999999999px" height="124.39999999999999px" xmlns="http://www.w3.org/2000/svg" viewBox="205.6125 12.800000000000004 88.77499999999999 124.39999999999999" style="background: rgba(0, 0, 0, 0);" preserveAspectRatio="xMidYMid"><defs><filter id="editing-offset"><feFlood flood-color="rgba(0%,0%,0%,0)" flood-opacity="0.5" result="c1"></feFlood><feFlood flood-color="rgba(14.180098831985621%,90.54761904761904%,84.32200598656209%,0.434)" flood-opacity="0.5" result="c2"></feFlood><feFlood flood-color="#00adb5" flood-opacity="0.5" result="c3"></feFlood><feComposite operator="in" in="c1" in2="SourceAlpha" result="text-c1"></feComposite><feComposite operator="in" in="c2" in2="SourceAlpha" result="text-c2"></feComposite><feComposite operator="in" in="c3" in2="SourceAlpha" result="text-c3"></feComposite><feOffset in="text-c1" dx="-10" dy="0" result="text1"></feOffset><feOffset in="text-c2" dx="10" dy="0" result="text2"></feOffset><feOffset in="text-c3" dx="0" dy="0" result="text3"></feOffset><feMerge><feMergeNode in="text1"></feMergeNode><feMergeNode in="text2"></feMergeNode><feMergeNode in="text3"></feMergeNode></feMerge></filter></defs><g filter="url(#editing-offset)"><g transform="translate(226.96501648426056, 104.7650032043457)"><path d="M0.63 7.28L5.44 7.28L5.44-33.28L11.59-33.28L11.59 7.28L11.59 7.28Q11.59 8.56 11.11 9.69L11.11 9.69L11.11 9.69Q10.63 10.81 9.80 11.64L9.80 11.64L9.80 11.64Q8.97 12.47 7.84 12.95L7.84 12.95L7.84 12.95Q6.72 13.44 5.44 13.44L5.44 13.44L0.63 13.44L0.63 7.28ZM5.13-39.69L5.13-46.09L11.91-46.09L11.91-39.69L5.13-39.69ZM20.22-27.13L20.22-33.28L28.34-33.28L28.34-43.53L34.50-43.53L34.50-33.28L45.44-33.28L45.44-27.13L34.50-27.13L34.50-6.16L45.44-6.16L45.44 0L34.50 0L34.50 0Q33.25 0 32.13-0.48L32.13-0.48L32.13-0.48Q31-0.97 30.16-1.80L30.16-1.80L30.16-1.80Q29.31-2.63 28.83-3.75L28.83-3.75L28.83-3.75Q28.34-4.88 28.34-6.16L28.34-6.16L28.34-27.13L20.22-27.13Z"></path></g></g><style>text {
  font-size: 64px;
  font-family: Arial Black;
  dominant-baseline: central;
  text-anchor: middle;
}</style></svg>